HIERARCHY
ROOT Hips
{
	OFFSET -0.001795 -0.223333 0.028219
	CHANNELS 6 Xposition Yposition Zposition Zrotation Yrotation Xrotation 
	JOINT LeftUpLeg
	{
		OFFSET 0.069520 -0.091406 -0.006815
		CHANNELS 3 Zrotation Yrotation Xrotation
		JOINT LeftLeg
		{
			OFFSET 0.034277 -0.375199 -0.004496
			CHANNELS 3 Zrotation Yrotation Xrotation
			JOINT LeftFoot
			{
				OFFSET -0.013596 -0.397961 -0.043693
				CHANNELS 3 Zrotation Yrotation Xrotation
				JOINT LeftToe
				{
					OFFSET 0.026358 -0.055791 0.119288
					CHANNELS 3 Zrotation Yrotation Xrotation
					End Site
					{
						OFFSET 0.000000 0.000000 0.000000
					}
				}
			}
		}
	}
	JOINT RightUpLeg
	{
		OFFSET -0.067670 -0.090522 -0.004320
		CHANNELS 3 Zrotation Yrotation Xrotation
		JOINT RightLeg
		{
			OFFSET -0.038290 -0.382569 -0.008850
			CHANNELS 3 Zrotation Yrotation Xrotation
			JOINT RightFoot
			{
				OFFSET 0.015774 -0.398415 -0.042312
				CHANNELS 3 Zrotation Yrotation Xrotation
				JOINT RightToe
				{
					OFFSET -0.025372 -0.048144 0.123348
					CHANNELS 3 Zrotation Yrotation Xrotation
					End Site
					{
						OFFSET 0.000000 0.000000 0.000000
					}
				}
			}
		}
	}
	JOINT Spine
	{
		OFFSET -0.002533 0.108963 -0.026696
		CHANNELS 3 Zrotation Yrotation Xrotation
		JOINT Spine1
		{
			OFFSET 0.005487 0.135180 0.001092
			CHANNELS 3 Zrotation Yrotation Xrotation
			JOINT Spine2
			{
				OFFSET 0.001457 0.052922 0.025425
				CHANNELS 3 Zrotation Yrotation Xrotation
				JOINT Neck
				{
					OFFSET -0.002778 0.213870 -0.042857
					CHANNELS 3 Zrotation Yrotation Xrotation
					JOINT Head
					{
						OFFSET 0.005152 0.064970 0.051349
						CHANNELS 3 Zrotation Yrotation Xrotation
						End Site
						{
							OFFSET 0.000000 0.000000 0.000000
						}
					}
				}
				JOINT LeftShoulder
				{
					OFFSET 0.078845 0.121749 -0.034090
					CHANNELS 3 Zrotation Yrotation Xrotation
					JOINT LeftArm
					{
						OFFSET 0.090977 0.030469 -0.008868
						CHANNELS 3 Zrotation Yrotation Xrotation
						JOINT LeftForeArm
						{
							OFFSET 0.259612 -0.012772 -0.027456
							CHANNELS 3 Zrotation Yrotation Xrotation
							JOINT LeftHand
							{
								OFFSET 0.249234 0.008986 -0.001171
								CHANNELS 3 Zrotation Yrotation Xrotation
								End Site
								{
									OFFSET 0.000000 0.000000 0.000000
								}
							}
						}
					}
				}
				JOINT RightShoulder
				{
					OFFSET -0.081759 0.118833 -0.038615
					CHANNELS 3 Zrotation Yrotation Xrotation
					JOINT RightArm
					{
						OFFSET -0.096012 0.032551 -0.009143
						CHANNELS 3 Zrotation Yrotation Xrotation
						JOINT RightForeArm
						{
							OFFSET -0.253742 -0.013329 -0.021401
							CHANNELS 3 Zrotation Yrotation Xrotation
							JOINT RightHand
							{
								OFFSET -0.255298 0.007772 -0.005559
								CHANNELS 3 Zrotation Yrotation Xrotation
								End Site
								{
									OFFSET 0.000000 0.000000 0.000000
								}
							}
						}
					}
				}
			}
		}
	}
}
MOTION
Frames: 7
Frame Time: 0.050000
0.000000 0.928749 0.000000 -1.141635 0.020274 -1.118920 12.754494 -0.245713 5.769598 -7.490672 0.772366 -1.536993 8.671462 18.432123 13.377274 0.000000 0.000000 0.000000 -10.932660 0.220456 0.170714 7.864487 -0.944314 3.529794 -8.985332 -21.402640 14.517002 0.000000 0.000000 0.000000 3.914781 -0.324948 4.074514 -1.421045 0.949647 -23.576819 -1.486932 2.961917 23.272279 5.588346 -1.140835 -25.719784 0.000000 0.000000 0.000000 -29.850882 -4.832731 -0.166020 -39.247603 -6.833711 -3.861058 -29.417457 -62.310953 20.968907 0.000000 0.000000 0.000000 28.834005 0.488502 -0.456497 45.803501 5.663608 -4.663434 19.704868 62.625554 16.257303 0.000000 0.000000 0.000000 
0.000187 0.928791 -0.000179 -1.403032 -0.996319 -0.543189 13.349506 -0.261620 6.350552 -8.331284 0.807909 -3.240177 9.085305 19.007486 14.031126 0.000000 0.000000 0.000000 -10.825325 0.270514 -0.881225 8.034166 -0.951209 3.858661 -8.559480 -20.766964 14.368126 0.000000 0.000000 0.000000 3.945364 -0.296744 3.589524 -1.766930 1.010903 -23.944967 -1.169366 3.761631 23.199382 6.325429 -1.586549 -25.324227 0.000000 0.000000 0.000000 -29.904128 -4.444827 -0.479071 -38.176847 -6.724164 -3.772025 -33.637736 -63.339048 24.072261 0.000000 0.000000 0.000000 28.349164 -0.503836 -1.043518 46.269428 5.027202 -4.927461 22.528487 64.176543 18.700544 0.000000 0.000000 0.000000 
0.000436 0.929055 -0.000644 -1.243229 -0.637248 -0.848388 13.268108 -0.264333 6.292762 -8.421846 0.826758 -2.774661 8.874096 18.715981 13.915925 0.000000 0.000000 0.000000 -10.885055 0.251900 -0.682375 7.840110 -0.943256 4.180020 -8.711880 -20.994560 14.470095 0.000000 0.000000 0.000000 4.335881 -0.326553 3.837007 -1.961469 1.071781 -24.356713 -1.782426 3.274156 23.681578 6.503960 -1.581812 -26.697702 0.000000 0.000000 0.000000 -29.072685 -4.728976 -0.100661 -38.647859 -7.231920 -3.750806 -29.335691 -63.165383 21.266558 0.000000 0.000000 0.000000 29.680027 0.038704 -0.835270 45.322386 5.714233 -4.639335 17.796401 63.170801 15.219004 0.000000 0.000000 0.000000 
0.000612 0.929003 -0.001142 -1.278681 -0.541790 -0.919466 13.901279 -0.305847 6.228095 -9.447449 0.920690 -2.628390 8.749652 18.537724 13.914802 0.000000 0.000000 0.000000 -11.159290 0.252331 -0.954021 8.371733 -1.041053 4.766235 -8.742334 -21.037531 14.529099 0.000000 0.000000 0.000000 4.325229 -0.343494 4.066883 -2.333974 1.167035 -24.865735 -1.713504 2.684849 23.644849 6.471153 -1.690688 -26.339477 0.000000 0.000000 0.000000 -29.163442 -4.428977 -0.100934 -38.310072 -7.638969 -3.651479 -26.110255 -62.637937 19.090924 0.000000 0.000000 0.000000 29.451228 0.047353 -1.023463 45.017807 5.696607 -4.551633 19.733021 63.787336 16.500782 0.000000 0.000000 0.000000 
0.000769 0.929034 -0.001666 -1.296420 -0.320696 -1.190469 13.871663 -0.301472 6.009299 -9.303913 0.938793 -1.880912 8.664471 18.419765 13.683408 0.000000 0.000000 0.000000 -11.029587 0.235003 -0.540989 8.185978 -1.014441 4.589528 -8.818697 -21.146683 14.585133 0.000000 0.000000 0.000000 3.992254 -0.343864 4.291325 -1.712833 1.020401 -24.354066 -2.078243 2.873894 23.165853 6.651406 -1.801199 -25.729140 0.000000 0.000000 0.000000 -28.471561 -4.750300 -0.004303 -38.823341 -7.978492 -3.516346 -25.030484 -62.344472 18.219905 0.000000 0.000000 0.000000 29.802155 -0.014790 -0.974093 44.265734 6.331302 -4.266963 17.263657 63.578426 14.878867 0.000000 0.000000 0.000000 
0.000904 0.929196 -0.002074 -1.582476 -0.282808 -1.244432 14.277916 -0.332930 6.128202 -9.469363 0.944037 -2.051608 8.630947 18.371870 13.682567 0.000000 0.000000 0.000000 -10.746253 0.226711 -0.488430 8.233087 -1.022354 4.562452 -8.811529 -21.130489 14.743634 0.000000 0.000000 0.000000 3.773056 -0.317086 4.054513 -1.312910 0.928407 -24.741957 -1.870139 2.641541 24.031010 6.242577 -1.631592 -25.637333 0.000000 0.000000 0.000000 -28.840857 -4.580010 -0.018057 -38.565706 -8.424387 -3.460778 -24.077459 -61.925765 17.556608 0.000000 0.000000 0.000000 29.475008 0.600716 -0.582900 43.739287 6.967552 -4.073916 14.568965 63.768183 13.210126 0.000000 0.000000 0.000000 
0.001006 0.929147 -0.002452 -1.628834 -0.176617 -1.322354 14.386283 -0.336139 5.916589 -9.545693 0.969969 -1.621667 8.594612 18.319936 13.554879 0.000000 0.000000 0.000000 -10.515615 0.217092 -0.422836 7.921017 -0.980714 4.601138 -8.872135 -21.222491 14.743360 0.000000 0.000000 0.000000 3.691807 -0.312284 4.043817 -1.270007 0.916450 -24.398706 -1.910429 2.612731 23.806835 6.332547 -1.714376 -25.309360 0.000000 0.000000 0.000000 -28.761410 -4.791753 0.096373 -38.567364 -8.462333 -3.426722 -23.589777 -62.344432 17.373757 0.000000 0.000000 0.000000 29.504137 0.698493 -0.515799 43.150521 7.405575 -3.871489 12.128379 64.276902 11.766665 0.000000 0.000000 0.000000 
